  0
SECTION
  2
HEADER
  9
$LIMMIN
 10
0
 20
0
  9
$LIMMAX
 10
297
 20
210
  9
$EXTMIN
 10
55.5
 20
18
  9
$EXTMAX
 10
231
 20
106.5
  0
ENDSEC
  0
SECTION
  2
TABLES
  0
TABLE
  2
LTYPE
 70
9
  0
LTYPE
  2
AUSGEZOGEN
 70
64
  3
Ausgezogene Linie
 72
65
 73
0
 40
0.0
  0
LTYPE
  2
GESTRICHELT
 70
0
  3
__ __ __ __ __ __ __ __ __ __ __ __ __ __ __
 72
65
 73
2
 40
3
 49
2
 49
-1
  0
LTYPE
  2
STRICHPUNKTIERT
 70
0
  3
__ . __ . __ . __ . __ . __ . __ . __ . __ .
 72
65
 73
4
 40
8
 49
4
 49
-2
 49
0
 49
-2
  0
ENDTAB
  0
TABLE
  2
LAYER
 70
10
  0
LAYER
  2
1
 70
0
 62
7
  6
AUSGEZOGEN
  0
LAYER
  2
LINES
 70
0
 62
7
  6
AUSGEZOGEN
  0
LAYER
  2
CONNECTIONS
 70
0
 62
-7
  6
AUSGEZOGEN
  0
LAYER
  2
TEXT
 70
0
 62
7
  6
AUSGEZOGEN
  0
LAYER
  2
TCONNECTIONS
 70
0
 62
7
  6
AUSGEZOGEN
  0
ENDTAB
  0
ENDSEC
  0
SECTION
  2
BLOCKS
  0
BLOCK
  8
0
  2
SK_SG77
 70
0
 10
0
 20
0
  0
LINE
  8
1
 62
7
 10
0.375
 20
-0.5625
 11
0.375
 21
-3.1875
  0
LINE
  8
1
 62
7
 10
1.5
 20
-0.5625
 11
1.5
 21
-3.1875
  0
LINE
  8
1
 62
7
 10
0.9375
 20
0
 11
0
 21
-0.9375
  0
LINE
  8
1
 62
7
 10
0.9375
 20
0
 11
1.875
 21
-0.9375
  0
ENDBLK
  8
0
  0
BLOCK
  8
0
  2
PAL2DXF
 70
0
 10
0
 20
0
  0
LINE
  8
1
 62
7
 10
0
 20
1.5
 11
0
 21
0
  0
LINE
  8
1
 62
7
 10
13.5
 20
1.5
 11
13.5
 21
0
  0
LINE
  8
1
 62
7
 10
0.75
 20
7.5
 11
0.75
 21
1.5
  0
LINE
  8
1
 62
7
 10
2.25
 20
7.5
 11
2.25
 21
1.5
  0
LINE
  8
1
 62
7
 10
4.11767578125
 20
9.00073242188
 11
-1.5
 21
0.75
  0
LINE
  8
1
 62
7
 10
-1.5
 20
1.5
 11
15
 21
1.5
  0
LINE
  8
1
 62
7
 10
-1.5
 20
7.5
 11
15
 21
7.5
  0
LINE
  8
1
 62
7
 10
-1.5
 20
7.5
 11
-1.5
 21
1.5
  0
LINE
  8
1
 62
7
 10
15
 20
3.75
 11
15
 21
1.5
  0
LINE
  8
1
 62
7
 10
15
 20
7.5
 11
15
 21
5.25
  0
LINE
  8
1
 62
7
 10
3
 20
3.75
 11
18
 21
3.75
  0
LINE
  8
1
 62
7
 10
3
 20
5.25
 11
18
 21
5.25
  0
SOLID
  8
1
 62
7
 10
4.11767578125
 20
9.00073242188
 11
3.8291015625
 21
7.791015625
 12
3.04418945313
 22
8.23095703125
 13
3.04418945313
 23
8.23095703125
  0
LINE
  8
1
 62
7
 10
4.11767578125
 20
9.00073242188
 11
3.04418945313
 21
8.23095703125
  0
LINE
  8
1
 62
7
 10
4.11767578125
 20
9.00073242188
 11
3.8291015625
 21
7.791015625
  0
LINE
  8
1
 62
7
 10
0
 20
6
 11
0
 21
3
  0
LINE
  8
1
 62
7
 10
0
 20
3
 11
0.75
 21
3
  0
LINE
  8
1
 62
7
 10
0
 20
6
 11
0.75
 21
6
  0
LINE
  8
1
 62
7
 10
3
 20
6
 11
3
 21
3
  0
LINE
  8
1
 62
7
 10
2.25
 20
3
 11
3
 21
3
  0
LINE
  8
1
 62
7
 10
2.25
 20
6
 11
3
 21
6
  0
ENDBLK
  8
0
  0
BLOCK
  8
0
  2
PBV147
 70
0
 10
0
 20
0
  0
LINE
  8
1
 62
7
 10
0.375
 20
6.51806640625
 11
-4.125
 21
4.26806640625
  0
LINE
  8
1
 62
7
 10
0.375
 20
3.51806640625
 11
-4.125
 21
1.26806640625
  0
LINE
  8
1
 62
7
 10
0.375
 20
2.01806640625
 11
-4.125
 21
-0.231689453125
  0
LINE
  8
1
 62
7
 10
0.375
 20
0.51806640625
 11
-4.125
 21
-1.73168945313
  0
LINE
  8
1
 62
7
 10
0.375
 20
5.01806640625
 11
-4.125
 21
2.76806640625
  0
LINE
  8
1
 62
7
 10
-2.625
 20
-2.48168945313
 11
-4.125
 21
-3.23168945313
  0
LINE
  8
1
 62
7
 10
-2.625
 20
-3.98168945313
 11
-4.125
 21
-4.73168945313
  0
LINE
  8
1
 62
7
 10
-1.125
 20
7.26806640625
 11
-4.125
 21
5.76806640625
  0
LINE
  8
1
 62
7
 10
-3.375
 20
7.26806640625
 11
-4.13232421875
 21
6.88940429688
  0
LINE
  8
1
 62
7
 10
0.375
 20
7.26806640625
 11
0.375
 21
0
  0
LINE
  8
1
 62
7
 10
0.167724609375
 20
-0.33544921875
 11
-2.41772460938
 21
-1.6279296875
  0
LINE
  8
1
 62
7
 10
-2.625
 20
-1.96337890625
 11
-2.625
 21
-4.73168945313
  0
ARC
  8
1
 62
7
 10
-2.25
 20
-1.96337890625
 40
0.375
 50
116
 51
180
  0
ARC
  8
1
 62
7
 10
0
 20
0
 40
0.375
 50
296
 51
360
  0
ENDBLK
  8
0
  0
BLOCK
  8
0
  2
PBV147R
 70
0
 10
0
 20
0
  0
LINE
  8
1
 62
7
 10
3.0029296875
 20
-9.24096679688
 11
3.0029296875
 21
-12.0119628906
  0
LINE
  8
1
 62
7
 10
3.0029296875
 20
-11.2612304688
 11
4.50439453125
 21
-12.0119628906
  0
LINE
  8
1
 62
7
 10
3.75366210938
 20
0
 11
4.51196289063
 21
-0.379150390625
  0
LINE
  8
1
 62
7
 10
1.50146484375
 20
0
 11
4.50439453125
 21
-1.50146484375
  0
ARC
  8
1
 62
7
 10
0.375244140625
 20
-7.275390625
 40
0.37548828125
 50
180
 51
243
  0
ARC
  8
1
 62
7
 10
2.62744140625
 20
-9.24096679688
 40
0.37548828125
 50
360
 51
423
  0
LINE
  8
1
 62
7
 10
3.0029296875
 20
-9.75952148438
 11
4.50439453125
 21
-10.5104980469
  0
LINE
  8
1
 62
7
 10
0
 20
-2.25219726563
 11
4.50439453125
 21
-4.50439453125
  0
LINE
  8
1
 62
7
 10
0.207275390625
 20
-7.61108398438
 11
2.79541015625
 21
-8.90502929688
  0
LINE
  8
1
 62
7
 10
0
 20
-6.75659179688
 11
4.50439453125
 21
-9.0087890625
  0
LINE
  8
1
 62
7
 10
0
 20
-5.25512695313
 11
4.50439453125
 21
-7.50732421875
  0
LINE
  8
1
 62
7
 10
0
 20
-3.75366210938
 11
4.50439453125
 21
-6.005859375
  0
LINE
  8
1
 62
7
 10
0
 20
-0.750732421875
 11
4.50439453125
 21
-3.0029296875
  0
LINE
  8
1
 62
7
 10
0
 20
0
 11
0
 21
-7.275390625
  0
ENDBLK
  8
0
  0
BLOCK
  8
0
  2
PRV
 70
0
 10
0
 20
0
  0
LINE
  8
1
 62
7
 10
0
 20
0
 11
3
 21
0
  0
LINE
  8
1
 62
7
  6
STRICHPUNKTIERT
 10
1.5
 20
12
 11
1.5
 21
-7.5
  0
LINE
  8
1
 62
7
  6
STRICHPUNKTIERT
 10
1.5
 20
-7.5
 11
31.5
 21
-7.5
  0
LINE
  8
1
 62
7
  6
STRICHPUNKTIERT
 10
31.5
 20
12
 11
31.5
 21
-7.5
  0
LINE
  8
1
 62
7
 10
22.5
 20
1.5
 11
33
 21
1.5
  0
LINE
  8
1
 62
7
  6
STRICHPUNKTIERT
 10
1.5
 20
12
 11
31.5
 21
12
  0
LINE
  8
1
 62
7
 10
7.5
 20
4.5
 11
3
 21
0
  0
LINE
  8
1
 62
7
 10
4.5
 20
-1.5
 11
10.5
 21
-1.5
  0
LINE
  8
1
 62
7
 10
3
 20
0
 11
7.5
 21
-4.5
  0
LINE
  8
1
 62
7
  6
GESTRICHELT
 10
19.5
 20
-4.5
 11
26.25
 21
-4.5
  0
LINE
  8
1
 62
7
 10
21.537109375
 20
5.07470703125
 11
19.5
 21
4.5
  0
LINE
  8
1
 62
7
 10
16.5
 20
-1.5
 11
22.5
 21
-1.5
  0
LINE
  8
1
 62
7
 10
16.5
 20
4.5
 11
22.5
 21
4.5
  0
LINE
  8
1
 62
7
 10
23.25
 20
8.25
 11
17.25
 21
6.75
  0
LINE
  8
1
 62
7
 10
21.537109375
 20
8.83764648438
 11
18.1079101563
 21
8.02709960938
  0
LINE
  8
1
 62
7
 10
18.1079101563
 20
5.88500976563
 11
21.537109375
 21
5.07470703125
  0
LINE
  8
1
 62
7
 10
21.537109375
 20
6.94653320313
 11
18.1079101563
 21
5.88500976563
  0
LINE
  8
1
 62
7
 10
18.1079101563
 20
8.02709960938
 11
21.537109375
 21
6.94653320313
  0
LINE
  8
1
 62
7
 10
19.5
 20
11.25
 11
21.537109375
 21
10.7097167969
  0
LINE
  8
1
 62
7
 10
18.1079101563
 20
9.89916992188
 11
21.537109375
 21
8.83764648438
  0
LINE
  8
1
 62
7
 10
21.537109375
 20
10.7097167969
 11
18.1079101563
 21
9.89916992188
  0
LINE
  8
1
 62
7
 10
7.5
 20
4.5
 11
12
 21
0
  0
LINE
  8
1
 62
7
  6
GESTRICHELT
 10
7.5
 20
4.5
 11
7.5
 21
-1.5
  0
LINE
  8
1
 62
7
 10
16.5
 20
4.5
 11
16.5
 21
-1.5
  0
LINE
  8
1
 62
7
 10
12
 20
0
 11
7.5
 21
-4.5
  0
LINE
  8
1
 62
7
 10
7.5
 20
-4.5
 11
7.5
 21
-6
  0
LINE
  8
1
 62
7
 10
13.5
 20
0
 11
16.5
 21
0
  0
LINE
  8
1
 62
7
 10
12
 20
0
 11
13.5
 21
0
  0
LINE
  8
1
 62
7
  6
GESTRICHELT
 10
19.5
 20
-1.5
 11
19.5
 21
-4.5
  0
LINE
  8
1
 62
7
 10
16.5
 20
3.9375
 11
15
 21
3
  0
LINE
  8
1
 62
7
 10
15
 20
3
 11
16.5
 21
2.0625
  0
LINE
  8
1
 62
7
 10
16.5
 20
3.9375
 11
16.5
 21
2.0625
  0
LINE
  8
1
 62
7
 10
22.5
 20
4.5
 11
22.5
 21
-1.5
  0
CIRCLE
  8
1
 62
7
 10
27.75
 20
1.5
 40
0.375
  0
CIRCLE
  8
1
 62
7
 10
27.75
 20
1.5
 40
0.375
  0
LINE
  8
1
 62
7
 10
27.75
 20
5.09985351563
 11
27.75
 21
1.5
  0
LINE
  8
1
 62
7
 10
28.125
 20
1.5
 11
27.375
 21
1.5
  0
LINE
  8
1
 62
7
 10
28.125
 20
1.5
 11
27.375
 21
1.5
  0
LINE
  8
1
 62
7
  6
GESTRICHELT
 10
26.25
 20
-1.5
 11
26.25
 21
-4.5
  0
LINE
  8
1
 62
7
  6
GESTRICHELT
 10
22.5
 20
1.5
 11
26.25
 21
-1.5
  0
CIRCLE
  8
1
 62
7
 10
27.75
 20
7.19995117188
 40
2.09985351563
  0
LINE
  8
1
 62
7
 10
29.1574707031
 20
8.75830078125
 11
26.2238769531
 21
5.75708007813
  0
LINE
  8
1
 62
7
 10
23.25
 20
8.25
 11
21.5766601563
 21
8.18383789063
  0
LINE
  8
1
 62
7
 10
23.25
 20
8.25
 11
21.75
 21
7.5
  0
SOLID
  8
1
 62
7
 10
21.75
 20
7.5
 11
23.25
 21
8.25
 12
21.5766601563
 22
8.18383789063
 13
21.5766601563
 23
8.18383789063
  0
LINE
  8
1
 62
7
 10
21.5766601563
 20
8.18383789063
 11
21.75
 21
7.5
  0
LINE
  8
1
 62
7
 10
29.1574707031
 20
8.75830078125
 11
28.1394042969
 21
8.22485351563
  0
SOLID
  8
1
 62
7
 10
28.5373535156
 20
7.72485351563
 11
28.1394042969
 21
8.22485351563
 12
29.1574707031
 22
8.75830078125
 13
29.1574707031
 23
8.75830078125
  0
LINE
  8
1
 62
7
 10
28.1394042969
 20
8.22485351563
 11
28.5944824219
 21
7.740234375
  0
LINE
  8
1
 62
7
 10
29.1574707031
 20
8.75830078125
 11
28.5944824219
 21
7.740234375
  0
POLYLINE
  8
1
 62
7
 70
1
 66
1
 40
0.375
 41
0.375
  0
VERTEX
  8
1
 10
27.5625
 20
1.5
 42
1
  0
VERTEX
  8
1
 10
27.9375
 20
1.5
 42
1
  0
SEQEND
  8
1
  0
LINE
  8
1
 62
7
 10
16.5
 20
0
 11
22.5
 21
0
  0
SOLID
  8
1
 62
7
 10
16.5
 20
0
 11
18
 21
-0.375
 12
18
 22
0.375
 13
18
 23
0.375
  0
SOLID
  8
1
 62
7
 10
22.5
 20
0
 11
21
 21
-0.375
 12
21
 22
0.375
 13
21
 23
0.375
  0
ENDBLK
  8
0
  0
BLOCK
  8
TCONNECTIONS
  2
TRICON
 70
0
 10
0
 20
0
  0
POLYLINE
  8
TCONNECTIONS
 62
7
 70
1
 66
1
 40
0.375
 41
0.375
  0
VERTEX
  8
TCONNECTIONS
 10
-1.4375
 20
1.25
 42
1
  0
VERTEX
  8
TCONNECTIONS
 10
-1.0625
 20
1.25
 42
1
  0
SEQEND
  8
0
  0
ENDBLK
  8
0
  0
BLOCK
  8
0
  2
PPE1
 70
0
 10
0
 20
0
  0
LINE
  8
1
 62
7
 10
-1.5
 20
-3
 11
1.5
 21
-3
  0
LINE
  8
1
 62
7
 10
0
 20
-0.75
 11
1.5
 21
-3
  0
LINE
  8
1
 62
7
 10
0
 20
-0.75
 11
-1.5
 21
-3
  0
LINE
  8
1
 62
7
 10
0
 20
-0.75
 11
-1.5
 21
-3
  0
LINE
  8
1
 62
7
 10
0
 20
0
 11
0
 21
-0.75
  0
ENDBLK
  8
0
  0
BLOCK
  8
0
  2
R_SCHALT
 70
0
 10
0
 20
0
  0
LINE
  8
1
 62
7
 10
0
 20
0
 11
15
 21
0
  0
LINE
  8
1
 62
7
 10
15
 20
0
 11
15
 21
-2.5
  0
LINE
  8
1
 62
7
 10
15
 20
-2.5
 11
0
 21
-2.5
  0
LINE
  8
1
 62
7
 10
0
 20
0
 11
0
 21
-2.5
  0
LINE
  8
1
 62
7
 10
1.25
 20
0
 11
1.25
 21
-2.5
  0
LINE
  8
1
 62
7
 10
2.5
 20
0
 11
2.5
 21
-2.5
  0
LINE
  8
1
 62
7
 10
3.75
 20
0
 11
3.75
 21
-2.5
  0
LINE
  8
1
 62
7
 10
5
 20
0
 11
5
 21
-2.5
  0
LINE
  8
1
 62
7
 10
6.25
 20
0
 11
6.25
 21
-2.5
  0
LINE
  8
1
 62
7
 10
7.5
 20
0
 11
7.5
 21
-2.5
  0
LINE
  8
1
 62
7
 10
8.75
 20
0
 11
8.75
 21
-2.5
  0
LINE
  8
1
 62
7
 10
10
 20
0
 11
10
 21
-2.5
  0
LINE
  8
1
 62
7
 10
11.25
 20
0
 11
11.25
 21
-2.5
  0
LINE
  8
1
 62
7
 10
12.5
 20
0
 11
12.5
 21
-2.5
  0
LINE
  8
1
 62
7
 10
13.75
 20
0
 11
13.75
 21
-2.5
  0
ENDBLK
  8
0
  0
BLOCK
  8
0
  2
0002O0
 70
0
 10
0
 20
0
  0
ENDBLK
  8
0
  0
BLOCK
  8
0
  2
0002O3
 70
0
 10
0
 20
0
  0
ENDBLK
  8
0
  0
BLOCK
  8
0
  2
0002O6
 70
0
 10
0
 20
0
  0
LINE
  8
1
 62
7
 10
-10
 20
-2.625
 11
-7.5
 21
-2.625
  0
LINE
  8
1
 62
7
 10
-10
 20
-3.375
 11
-7.5
 21
-3.375
  0
LINE
  8
1
 62
7
 10
-10
 20
-2.25
 11
-10
 21
-3.75
  0
LINE
  8
1
 62
7
 10
-10.4721679688
 20
-7.5
 11
-10.4721679688
 21
-4.5
  0
LINE
  8
1
 62
7
 10
-7.47216796875
 20
-4.5
 11
-10.4721679688
 21
-4.5
  0
LINE
  8
1
 62
7
 10
-10.4721679688
 20
-7.5
 11
-7.47216796875
 21
-7.5
  0
LINE
  8
1
 62
7
 10
-7.97216796875
 20
-4.5
 11
-9.97216796875
 21
-7.5
  0
LINE
  8
1
 62
7
 10
-7.5
 20
-1.5
 11
-7.5
 21
-7.5
  0
LINE
  8
1
 62
7
 10
-3
 20
-1.5
 11
-3
 21
-7.5
  0
LINE
  8
1
 62
7
 10
-6
 20
-1.5
 11
-4.5
 21
-7.5
  0
LINE
  8
1
 62
7
 10
-1.5
 20
-7.5
 11
-1.5
 21
-1.5
  0
LINE
  8
1
 62
7
 10
-7.5
 20
-7.5
 11
-1.5
 21
-7.5
  0
SOLID
  8
1
 62
7
 10
-3
 20
-7.5
 11
-2.5
 21
-5.5
 12
-3.5
 22
-5.5
 13
-3.5
 23
-5.5
  0
LINE
  8
1
 62
7
 10
-6.5
 20
-6
 11
-5.5
 21
-6
  0
LINE
  8
1
 62
7
 10
-6
 20
-6
 11
-6
 21
-7.5
  0
LINE
  8
1
 62
7
 10
-1.5
 20
-1.5
 11
-7.5
 21
-1.5
  0
SOLID
  8
1
 62
7
 10
-6
 20
-1.5
 11
-6.05102539063
 21
-3.55908203125
 12
-5.0810546875
 22
-3.34814453125
 13
-5.0810546875
 23
-3.34814453125
  0
LINE
  8
1
 62
7
 10
4.5
 20
-1.5
 11
4.5
 21
-7.5
  0
LINE
  8
1
 62
7
 10
-1.5
 20
-7.5
 11
-1.5
 21
-1.5
  0
LINE
  8
1
 62
7
 10
0
 20
-1.5
 11
0
 21
-7.5
  0
LINE
  8
1
 62
7
 10
3
 20
-1.5
 11
1.5
 21
-7.5
  0
LINE
  8
1
 62
7
 10
4.5
 20
-7.5
 11
-1.5
 21
-7.5
  0
SOLID
  8
1
 62
7
 10
0
 20
-7.5
 11
-0.5
 21
-5.5
 12
0.5
 22
-5.5
 13
0.5
 23
-5.5
  0
LINE
  8
1
 62
7
 10
3.5
 20
-6
 11
2.5
 21
-6
  0
LINE
  8
1
 62
7
 10
3
 20
-6
 11
3
 21
-7.5
  0
LINE
  8
1
 62
7
 10
-1.5
 20
-1.5
 11
4.5
 21
-1.5
  0
SOLID
  8
1
 62
7
 10
3
 20
-1.5
 11
3.05078125
 21
-3.55908203125
 12
2.08081054688
 22
-3.34814453125
 13
2.08081054688
 23
-3.34814453125
  0
LINE
  8
1
 62
7
 10
7
 20
-2.625
 11
4.5
 21
-2.625
  0
LINE
  8
1
 62
7
 10
7
 20
-3.375
 11
4.5
 21
-3.375
  0
LINE
  8
1
 62
7
 10
7
 20
-2.25
 11
7
 21
-3.75
  0
LINE
  8
1
 62
7
 10
7.5
 20
-7.5
 11
7.5
 21
-4.5
  0
LINE
  8
1
 62
7
 10
4.5
 20
-4.5
 11
7.5
 21
-4.5
  0
LINE
  8
1
 62
7
 10
7.5
 20
-7.5
 11
4.5
 21
-7.5
  0
LINE
  8
1
 62
7
 10
5
 20
-4.5
 11
7
 21
-7.5
  0
ENDBLK
  8
0
  0
BLOCK
  8
0
  2
0002O18
 70
0
 10
0
 20
0
  0
LINE
  8
1
 62
7
 10
-10
 20
-2.625
 11
-7.5
 21
-2.625
  0
LINE
  8
1
 62
7
 10
-10
 20
-3.375
 11
-7.5
 21
-3.375
  0
LINE
  8
1
 62
7
 10
-10
 20
-2.25
 11
-10
 21
-3.75
  0
LINE
  8
1
 62
7
 10
-10.4721679688
 20
-7.5
 11
-10.4721679688
 21
-4.5
  0
LINE
  8
1
 62
7
 10
-7.47216796875
 20
-4.5
 11
-10.4721679688
 21
-4.5
  0
LINE
  8
1
 62
7
 10
-10.4721679688
 20
-7.5
 11
-7.47216796875
 21
-7.5
  0
LINE
  8
1
 62
7
 10
-7.97216796875
 20
-4.5
 11
-9.97216796875
 21
-7.5
  0
LINE
  8
1
 62
7
 10
-7.5
 20
-1.5
 11
-7.5
 21
-7.5
  0
LINE
  8
1
 62
7
 10
-3
 20
-1.5
 11
-3
 21
-7.5
  0
LINE
  8
1
 62
7
 10
-6
 20
-1.5
 11
-4.5
 21
-7.5
  0
LINE
  8
1
 62
7
 10
-1.5
 20
-7.5
 11
-1.5
 21
-1.5
  0
LINE
  8
1
 62
7
 10
-7.5
 20
-7.5
 11
-1.5
 21
-7.5
  0
SOLID
  8
1
 62
7
 10
-3
 20
-7.5
 11
-2.5
 21
-5.5
 12
-3.5
 22
-5.5
 13
-3.5
 23
-5.5
  0
LINE
  8
1
 62
7
 10
-6.5
 20
-6
 11
-5.5
 21
-6
  0
LINE
  8
1
 62
7
 10
-6
 20
-6
 11
-6
 21
-7.5
  0
LINE
  8
1
 62
7
 10
-1.5
 20
-1.5
 11
-7.5
 21
-1.5
  0
SOLID
  8
1
 62
7
 10
-6
 20
-1.5
 11
-6.05102539063
 21
-3.55908203125
 12
-5.0810546875
 22
-3.34814453125
 13
-5.0810546875
 23
-3.34814453125
  0
LINE
  8
1
 62
7
 10
4.5
 20
-1.5
 11
4.5
 21
-7.5
  0
LINE
  8
1
 62
7
 10
-1.5
 20
-7.5
 11
-1.5
 21
-1.5
  0
LINE
  8
1
 62
7
 10
0
 20
-1.5
 11
0
 21
-7.5
  0
LINE
  8
1
 62
7
 10
3
 20
-1.5
 11
1.5
 21
-7.5
  0
LINE
  8
1
 62
7
 10
4.5
 20
-7.5
 11
-1.5
 21
-7.5
  0
SOLID
  8
1
 62
7
 10
0
 20
-7.5
 11
-0.5
 21
-5.5
 12
0.5
 22
-5.5
 13
0.5
 23
-5.5
  0
LINE
  8
1
 62
7
 10
3.5
 20
-6
 11
2.5
 21
-6
  0
LINE
  8
1
 62
7
 10
3
 20
-6
 11
3
 21
-7.5
  0
LINE
  8
1
 62
7
 10
-1.5
 20
-1.5
 11
4.5
 21
-1.5
  0
SOLID
  8
1
 62
7
 10
3
 20
-1.5
 11
3.05078125
 21
-3.55908203125
 12
2.08081054688
 22
-3.34814453125
 13
2.08081054688
 23
-3.34814453125
  0
LINE
  8
1
 62
7
 10
7
 20
-2.625
 11
4.5
 21
-2.625
  0
LINE
  8
1
 62
7
 10
7
 20
-3.375
 11
4.5
 21
-3.375
  0
LINE
  8
1
 62
7
 10
7
 20
-2.25
 11
7
 21
-3.75
  0
LINE
  8
1
 62
7
 10
7.5
 20
-7.5
 11
7.5
 21
-4.5
  0
LINE
  8
1
 62
7
 10
4.5
 20
-4.5
 11
7.5
 21
-4.5
  0
LINE
  8
1
 62
7
 10
7.5
 20
-7.5
 11
4.5
 21
-7.5
  0
LINE
  8
1
 62
7
 10
5
 20
-4.5
 11
7
 21
-7.5
  0
ENDBLK
  8
0
  0
BLOCK
  8
0
  2
0002O30
 70
0
 10
0
 20
0
  0
ENDBLK
  8
0
  0
BLOCK
  8
0
  2
0002O33
 70
0
 10
0
 20
0
  0
ENDBLK
  8
0
  0
BLOCK
  8
0
  2
0002O37
 70
0
 10
0
 20
0
  0
ENDBLK
  8
0
  0
BLOCK
  8
0
  2
0002O39
 70
0
 10
0
 20
0
  0
ENDBLK
  8
0
  0
BLOCK
  8
0
  2
0002O40
 70
0
 10
0
 20
0
  0
ENDBLK
  8
0
  0
BLOCK
  8
0
  2
0002O41
 70
0
 10
0
 20
0
  0
ENDBLK
  8
0
  0
BLOCK
  8
0
  2
0002O42
 70
0
 10
0
 20
0
  0
ENDBLK
  8
0
  0
BLOCK
  8
0
  2
0002O43
 70
0
 10
0
 20
0
  0
ENDBLK
  8
0
  0
BLOCK
  8
0
  2
0002O44
 70
0
 10
0
 20
0
  0
ENDBLK
  8
0
  0
BLOCK
  8
0
  2
0002O45
 70
0
 10
0
 20
0
  0
ENDBLK
  8
0
  0
BLOCK
  8
0
  2
0002O48
 70
0
 10
0
 20
0
  0
LINE
  8
1
 62
7
 10
-10
 20
-2.625
 11
-7.5
 21
-2.625
  0
LINE
  8
1
 62
7
 10
-10
 20
-3.375
 11
-7.5
 21
-3.375
  0
LINE
  8
1
 62
7
 10
-10
 20
-2.25
 11
-10
 21
-3.75
  0
LINE
  8
1
 62
7
 10
-10.4721679688
 20
-7.5
 11
-10.4721679688
 21
-4.5
  0
LINE
  8
1
 62
7
 10
-7.47216796875
 20
-4.5
 11
-10.4721679688
 21
-4.5
  0
LINE
  8
1
 62
7
 10
-10.4721679688
 20
-7.5
 11
-7.47216796875
 21
-7.5
  0
LINE
  8
1
 62
7
 10
-7.97216796875
 20
-4.5
 11
-9.97216796875
 21
-7.5
  0
LINE
  8
1
 62
7
 10
-7.5
 20
-1.5
 11
-7.5
 21
-7.5
  0
LINE
  8
1
 62
7
 10
-3
 20
-1.5
 11
-3
 21
-7.5
  0
LINE
  8
1
 62
7
 10
-6
 20
-1.5
 11
-4.5
 21
-7.5
  0
LINE
  8
1
 62
7
 10
-1.5
 20
-7.5
 11
-1.5
 21
-1.5
  0
LINE
  8
1
 62
7
 10
-7.5
 20
-7.5
 11
-1.5
 21
-7.5
  0
SOLID
  8
1
 62
7
 10
-3
 20
-7.5
 11
-2.5
 21
-5.5
 12
-3.5
 22
-5.5
 13
-3.5
 23
-5.5
  0
LINE
  8
1
 62
7
 10
-6.5
 20
-6
 11
-5.5
 21
-6
  0
LINE
  8
1
 62
7
 10
-6
 20
-6
 11
-6
 21
-7.5
  0
LINE
  8
1
 62
7
 10
-1.5
 20
-1.5
 11
-7.5
 21
-1.5
  0
SOLID
  8
1
 62
7
 10
-6
 20
-1.5
 11
-6.05102539063
 21
-3.55908203125
 12
-5.0810546875
 22
-3.34814453125
 13
-5.0810546875
 23
-3.34814453125
  0
LINE
  8
1
 62
7
 10
4.5
 20
-1.5
 11
4.5
 21
-7.5
  0
LINE
  8
1
 62
7
 10
-1.5
 20
-7.5
 11
-1.5
 21
-1.5
  0
LINE
  8
1
 62
7
 10
0
 20
-1.5
 11
0
 21
-7.5
  0
LINE
  8
1
 62
7
 10
3
 20
-1.5
 11
1.5
 21
-7.5
  0
LINE
  8
1
 62
7
 10
4.5
 20
-7.5
 11
-1.5
 21
-7.5
  0
SOLID
  8
1
 62
7
 10
0
 20
-7.5
 11
-0.5
 21
-5.5
 12
0.5
 22
-5.5
 13
0.5
 23
-5.5
  0
LINE
  8
1
 62
7
 10
3.5
 20
-6
 11
2.5
 21
-6
  0
LINE
  8
1
 62
7
 10
3
 20
-6
 11
3
 21
-7.5
  0
LINE
  8
1
 62
7
 10
-1.5
 20
-1.5
 11
4.5
 21
-1.5
  0
SOLID
  8
1
 62
7
 10
3
 20
-1.5
 11
3.05078125
 21
-3.55908203125
 12
2.08081054688
 22
-3.34814453125
 13
2.08081054688
 23
-3.34814453125
  0
LINE
  8
1
 62
7
 10
7
 20
-2.625
 11
4.5
 21
-2.625
  0
LINE
  8
1
 62
7
 10
7
 20
-3.375
 11
4.5
 21
-3.375
  0
LINE
  8
1
 62
7
 10
7
 20
-2.25
 11
7
 21
-3.75
  0
LINE
  8
1
 62
7
 10
7.5
 20
-7.5
 11
7.5
 21
-4.5
  0
LINE
  8
1
 62
7
 10
4.5
 20
-4.5
 11
7.5
 21
-4.5
  0
LINE
  8
1
 62
7
 10
7.5
 20
-7.5
 11
4.5
 21
-7.5
  0
LINE
  8
1
 62
7
 10
5
 20
-4.5
 11
7
 21
-7.5
  0
ENDBLK
  8
0
  0
BLOCK
  8
0
  2
0002O60
 70
0
 10
0
 20
0
  0
ENDBLK
  8
0
  0
BLOCK
  8
0
  2
0002O61
 70
0
 10
0
 20
0
  0
ENDBLK
  8
0
  0
BLOCK
  8
0
  2
0002O79
 70
0
 10
0
 20
0
  0
ENDBLK
  8
0
  0
BLOCK
  8
0
  2
0002O62
 70
0
 10
0
 20
0
  0
ENDBLK
  8
0
  0
ENDSEC
  0
SECTION
  2
ENTITIES
  0
POLYLINE
  8
LINES
 62
7
 66
1
  0
VERTEX
  8
LINES
 62
7
 10
109.75
 20
85.25
  0
VERTEX
  8
LINES
 62
7
 10
109.75
 20
79.25
  0
VERTEX
  8
LINES
 62
7
 10
115.75
 20
79.25
  0
VERTEX
  8
LINES
 62
7
 10
115.75
 20
68.75
  0
SEQEND
  8
1
  0
POLYLINE
  8
LINES
 62
7
 66
1
  0
VERTEX
  8
LINES
 62
7
 10
123.25
 20
85.25
  0
VERTEX
  8
LINES
 62
7
 10
123.25
 20
79.25
  0
VERTEX
  8
LINES
 62
7
 10
118.75
 20
79.25
  0
VERTEX
  8
LINES
 62
7
 10
118.75
 20
68.75
  0
SEQEND
  8
1
  0
POLYLINE
  8
LINES
 62
7
 66
1
  0
VERTEX
  8
LINES
 62
7
 10
159.25
 20
85.25
  0
VERTEX
  8
LINES
 62
7
 10
159.25
 20
79.25
  0
VERTEX
  8
LINES
 62
7
 10
165.25
 20
79.25
  0
VERTEX
  8
LINES
 62
7
 10
165.25
 20
68.75
  0
SEQEND
  8
1
  0
POLYLINE
  8
LINES
 62
7
 66
1
  0
VERTEX
  8
LINES
 62
7
 10
172.75
 20
85.25
  0
VERTEX
  8
LINES
 62
7
 10
172.75
 20
79.25
  0
VERTEX
  8
LINES
 62
7
 10
168.25
 20
79.25
  0
VERTEX
  8
LINES
 62
7
 10
168.25
 20
68.75
  0
SEQEND
  8
1
  0
POLYLINE
  8
LINES
 62
7
 66
1
  0
VERTEX
  8
LINES
 62
7
 10
117.25
 20
59.75
  0
VERTEX
  8
LINES
 62
7
 10
117.25
 20
46.25
  0
VERTEX
  8
LINES
 62
7
 10
117.25
 20
46.25
  0
VERTEX
  8
LINES
 62
7
 10
117.25
 20
31.25
  0
SEQEND
  8
1
  0
POLYLINE
  8
LINES
 62
7
 66
1
  0
VERTEX
  8
LINES
 62
7
 10
166.75
 20
59.75
  0
VERTEX
  8
LINES
 62
7
 10
166.75
 20
31.25
  0
VERTEX
  8
LINES
 62
7
 10
166.75
 20
31.25
  0
SEQEND
  8
1
  0
POLYLINE
  8
LINES
 62
7
 66
1
  0
VERTEX
  8
LINES
 62
7
 10
69.25
 20
29.75
  0
VERTEX
  8
LINES
 62
7
 10
64.75
 20
29.75
  0
VERTEX
  8
LINES
 62
7
 10
64.75
 20
29.75
  0
VERTEX
  8
LINES
 62
7
 10
60.25
 20
29.75
  0
SEQEND
  8
1
  0
POLYLINE
  8
LINES
 62
7
 66
1
  0
VERTEX
  8
LINES
 62
7
 10
102.25
 20
31.25
  0
VERTEX
  8
LINES
 62
7
 10
115.75
 20
31.25
  0
VERTEX
  8
LINES
 62
7
 10
115.75
 20
31.25
  0
VERTEX
  8
LINES
 62
7
 10
117.25
 20
31.25
  0
SEQEND
  8
1
  0
POLYLINE
  8
LINES
 62
7
 66
1
  0
VERTEX
  8
LINES
 62
7
 10
204.25
 20
85.25
  0
VERTEX
  8
LINES
 62
7
 10
204.25
 20
79.25
  0
VERTEX
  8
LINES
 62
7
 10
210.25
 20
79.25
  0
VERTEX
  8
LINES
 62
7
 10
210.25
 20
68.75
  0
SEQEND
  8
1
  0
POLYLINE
  8
LINES
 62
7
 66
1
  0
VERTEX
  8
LINES
 62
7
 10
217.75
 20
85.25
  0
VERTEX
  8
LINES
 62
7
 10
217.75
 20
79.25
  0
VERTEX
  8
LINES
 62
7
 10
213.25
 20
79.25
  0
VERTEX
  8
LINES
 62
7
 10
213.25
 20
68.75
  0
SEQEND
  8
1
  0
POLYLINE
  8
LINES
 62
7
 66
1
  0
VERTEX
  8
LINES
 62
7
 10
211.75
 20
59.75
  0
VERTEX
  8
LINES
 62
7
 10
211.75
 20
31.25
  0
VERTEX
  8
LINES
 62
7
 10
166.75
 20
31.25
  0
SEQEND
  8
1
  0
POLYLINE
  8
LINES
 62
7
 66
1
  0
VERTEX
  8
LINES
 62
7
 10
166.75
 20
31.25
  0
VERTEX
  8
LINES
 62
7
 10
117.25
 20
31.25
  0
VERTEX
  8
LINES
 62
7
 10
117.25
 20
31.25
  0
SEQEND
  8
1
  0
INSERT
  8
1
  2
PAL2DXF
 10
109.75
 20
85.25
  0
INSERT
  8
1
  2
PAL2DXF
 10
159.25
 20
85.25
  0
LINE
  8
1
 62
7
 10
115.75
 20
68.75
 11
115.75
 21
67.25
  0
LINE
  8
1
 62
7
 10
118.75
 20
68.75
 11
118.75
 21
67.25
  0
LINE
  8
1
 62
7
 10
114.75
 20
61.25
 11
115.75
 21
59.5
  0
LINE
  8
1
 62
7
 10
116.75
 20
61.25
 11
115.75
 21
59.5
  0
LINE
  8
1
 62
7
 10
114.75
 20
61.25
 11
116.75
 21
61.25
  0
LINE
  8
1
 62
7
 10
117.25
 20
59.75
 11
117.25
 21
61.25
  0
LINE
  8
1
 62
7
 10
117.75
 20
61.25
 11
118.75
 21
59.5
  0
LINE
  8
1
 62
7
 10
119.75
 20
61.25
 11
118.75
 21
59.5
  0
LINE
  8
1
 62
7
 10
117.75
 20
61.25
 11
119.75
 21
61.25
  0
TEXT
  8
1
 62
7
 40
2
  1

  7
STANDARD
 72
2
 10
102.277832031
 20
61.5
 11
104.027832031
 21
61.5
  0
TEXT
  8
1
 62
7
 40
2
  1

  7
STANDARD
 10
124.5
 20
61.5
  0
INSERT
  8
1
  2
0002O6
 10
115.75
 20
68.75
  0
LINE
  8
1
 62
7
 10
165.25
 20
68.75
 11
165.25
 21
67.25
  0
LINE
  8
1
 62
7
 10
168.25
 20
68.75
 11
168.25
 21
67.25
  0
LINE
  8
1
 62
7
 10
164.25
 20
61.25
 11
165.25
 21
59.5
  0
LINE
  8
1
 62
7
 10
166.25
 20
61.25
 11
165.25
 21
59.5
  0
LINE
  8
1
 62
7
 10
164.25
 20
61.25
 11
166.25
 21
61.25
  0
LINE
  8
1
 62
7
 10
166.75
 20
59.75
 11
166.75
 21
61.25
  0
LINE
  8
1
 62
7
 10
167.25
 20
61.25
 11
168.25
 21
59.5
  0
LINE
  8
1
 62
7
 10
169.25
 20
61.25
 11
168.25
 21
59.5
  0
LINE
  8
1
 62
7
 10
167.25
 20
61.25
 11
169.25
 21
61.25
  0
TEXT
  8
1
 62
7
 40
2
  1

  7
STANDARD
 72
2
 10
151.777832031
 20
61.5
 11
153.527832031
 21
61.5
  0
TEXT
  8
1
 62
7
 40
2
  1

  7
STANDARD
 10
174
 20
61.5
  0
INSERT
  8
1
  2
0002O18
 10
165.25
 20
68.75
  0
INSERT
  8
1
  2
PRV
 10
69.25
 20
29.75
  0
INSERT
  8
1
  2
TRICON
 10
118.5
 20
30
  0
INSERT
  8
1
  2
PPE1
 10
60.25
 20
29.75
 50
270
  0
TEXT
  8
1
 62
7
 40
2
  1

  7
STANDARD
 72
1
 10
110.375244141
 20
97.125
 11
111.000244141
 21
97.125
  0
LINE
  8
1
 62
7
 10
111.000244141
 20
94.125
 11
111.000244141
 21
93.125
  0
TEXT
  8
1
 62
7
 40
2
  1

  7
STANDARD
 72
1
 10
123.875244141
 20
97.125
 11
124.500244141
 21
97.125
  0
LINE
  8
1
 62
7
 10
124.500244141
 20
94.125
 11
124.500244141
 21
93.125
  0
TEXT
  8
1
 62
7
 40
2
  1

  7
STANDARD
 72
1
 10
159.875244141
 20
97.125
 11
160.500244141
 21
97.125
  0
LINE
  8
1
 62
7
 10
160.500244141
 20
94.125
 11
160.500244141
 21
93.125
  0
TEXT
  8
1
 62
7
 40
2
  1

  7
STANDARD
 72
1
 10
173.375244141
 20
97.125
 11
174.000244141
 21
97.125
  0
LINE
  8
1
 62
7
 10
174.000244141
 20
94.125
 11
174.000244141
 21
93.125
  0
TEXT
  8
1
 62
7
 40
2
  1
Cyl A
  7
STANDARD
 72
1
 10
117.032226563
 20
101.797851563
 11
117.594726563
 21
101.797851563
  0
TEXT
  8
1
 62
7
 40
2
  1
Cyl B
  7
STANDARD
 72
1
 10
166.60546875
 20
101.724609375
 11
167.16796875
 21
101.724609375
  0
TEXT
  8
1
 62
7
 40
2
  1
Valve A
  7
STANDARD
 72
1
 10
108.459472656
 20
53.2802734375
 11
109.296875
 21
53.2802734375
  0
TEXT
  8
1
 62
7
 40
2
  1
Valve B
  7
STANDARD
 72
1
 10
159.411132813
 20
53.5581054688
 11
160.248535156
 21
53.5581054688
  0
INSERT
  8
1
  2
PAL2DXF
 10
204.25
 20
85.25
  0
LINE
  8
1
 62
7
 10
210.25
 20
68.75
 11
210.25
 21
67.25
  0
LINE
  8
1
 62
7
 10
213.25
 20
68.75
 11
213.25
 21
67.25
  0
LINE
  8
1
 62
7
 10
209.25
 20
61.25
 11
210.25
 21
59.5
  0
LINE
  8
1
 62
7
 10
211.25
 20
61.25
 11
210.25
 21
59.5
  0
LINE
  8
1
 62
7
 10
209.25
 20
61.25
 11
211.25
 21
61.25
  0
LINE
  8
1
 62
7
 10
211.75
 20
59.75
 11
211.75
 21
61.25
  0
LINE
  8
1
 62
7
 10
212.25
 20
61.25
 11
213.25
 21
59.5
  0
LINE
  8
1
 62
7
 10
214.25
 20
61.25
 11
213.25
 21
59.5
  0
LINE
  8
1
 62
7
 10
212.25
 20
61.25
 11
214.25
 21
61.25
  0
TEXT
  8
1
 62
7
 40
2
  1

  7
STANDARD
 72
2
 10
196.777832031
 20
61.5
 11
198.527832031
 21
61.5
  0
TEXT
  8
1
 62
7
 40
2
  1

  7
STANDARD
 10
219
 20
61.5
  0
INSERT
  8
1
  2
0002O48
 10
210.25
 20
68.75
  0
TEXT
  8
1
 62
7
 40
2
  1
Cyl C
  7
STANDARD
 72
1
 10
211.766601563
 20
100.838378906
 11
212.329101563
 21
100.838378906
  0
TEXT
  8
1
 62
7
 40
2
  1
Valve C
  7
STANDARD
 72
1
 10
204.926757813
 20
54.2670898438
 11
205.764160156
 21
54.2670898438
  0
INSERT
  8
1
  2
TRICON
 10
168
 20
30
  0
TEXT
  8
1
 62
7
 40
2
  1

  7
STANDARD
 72
1
 10
204.875244141
 20
97.125
 11
205.500244141
 21
97.125
  0
LINE
  8
1
 62
7
 10
205.500244141
 20
94.125
 11
205.500244141
 21
93.125
  0
TEXT
  8
1
 62
7
 40
2
  1

  7
STANDARD
 72
1
 10
218.375244141
 20
97.125
 11
219.000244141
 21
97.125
  0
LINE
  8
1
 62
7
 10
219.000244141
 20
94.125
 11
219.000244141
 21
93.125
  0
ENDSEC
  0
EOF
